<svg xmlns="http://www.w3.org/2000/svg" width="900" height="360" viewBox="0 0 900 360" role="img" aria-labelledby="title desc">
  <title id="title">Hold'em exact-gate EV over time</title>
  <desc id="desc">Line graph of avg_utility_model in chips per hand against the tight-turn-river-exact-pot-odds e8 gate, using real commit timestamps. Data: 2026-05-19T03:13:49-07:00 e228875 +0.0077, 2026-05-19T04:51:12-07:00 c760f0a +0.4455, 2026-05-19T05:02:45-07:00 806fda7 +0.3545, 2026-05-19T05:52:39-07:00 3344aef +0.5073, 2026-05-19T07:56:19-07:00 fe97bbc +0.4578, 2026-05-19T10:31:16-07:00 2861fdb +0.4415, 2026-05-19T12:09:32-07:00 2d027bd +0.0650, 2026-05-19T14:05:21-07:00 bdec05e +0.2950, 2026-05-19T14:47:54-07:00 26e80b3 +0.7950, 2026-05-19T15:03:29-07:00 7023b00 +0.6800, 2026-05-19T15:33:35-07:00 daab72d +0.9800, 2026-05-19T15:57:39-07:00 fe4274e +0.5800, 2026-05-19T16:41:33-07:00 abf88ee +0.0460.</desc>
  <rect width="900" height="360" fill="#ffffff"/>
  <text x="92" y="28" font-family="Arial, Helvetica, sans-serif" font-size="20" font-weight="700" fill="#1f2933">Hold'em Exact-Gate EV Over Time</text>
  <text x="92" y="48" font-family="Arial, Helvetica, sans-serif" font-size="12" fill="#52606d">avg_utility_model, chips/hand vs tight-turn-river-exact-pot-odds e8; timestamps are commit times</text>

  <line x1="92" y1="285" x2="850" y2="285" stroke="#9aa5b1" stroke-width="1"/>
  <line x1="92" y1="65" x2="92" y2="285" stroke="#9aa5b1" stroke-width="1"/>

  <g font-family="Arial, Helvetica, sans-serif" font-size="11" fill="#52606d">
    <line x1="92" y1="285" x2="850" y2="285" stroke="#e4e7eb" stroke-width="1"/>
    <text x="58" y="289">0.00</text>
    <line x1="92" y1="230" x2="850" y2="230" stroke="#e4e7eb" stroke-width="1"/>
    <text x="58" y="234">0.25</text>
    <line x1="92" y1="175" x2="850" y2="175" stroke="#e4e7eb" stroke-width="1"/>
    <text x="58" y="179">0.50</text>
    <line x1="92" y1="120" x2="850" y2="120" stroke="#e4e7eb" stroke-width="1"/>
    <text x="58" y="124">0.75</text>
    <line x1="92" y1="65" x2="850" y2="65" stroke="#f3d19c" stroke-width="1" stroke-dasharray="4 4"/>
    <text x="58" y="69">1.00</text>
  </g>

  <polyline points="92.0,283.3 183.4,187.0 194.2,207.0 241.1,173.4 357.1,184.3 502.5,187.9 594.7,270.7 703.4,220.1 743.3,110.1 758.0,135.4 786.2,69.4 808.8,157.4 850.0,274.9" fill="none" stroke="#1f2933" stroke-opacity="0.13" stroke-width="8" stroke-linecap="round" stroke-linejoin="round"/>
  <polyline points="92.0,283.3 183.4,187.0 194.2,207.0 241.1,173.4 357.1,184.3 502.5,187.9 594.7,270.7 703.4,220.1 743.3,110.1 758.0,135.4 786.2,69.4 808.8,157.4 850.0,274.9" fill="none" stroke="#f59f00" stroke-width="4" stroke-linecap="round" stroke-linejoin="round"/>

  <g fill="#ffffff" stroke="#f59f00" stroke-width="3">
    <circle cx="92.0" cy="283.3" r="5"/>
    <circle cx="183.4" cy="187.0" r="5"/>
    <circle cx="194.2" cy="207.0" r="5"/>
    <circle cx="241.1" cy="173.4" r="5"/>
    <circle cx="357.1" cy="184.3" r="5"/>
    <circle cx="502.5" cy="187.9" r="5"/>
    <circle cx="594.7" cy="270.7" r="5"/>
    <circle cx="703.4" cy="220.1" r="5"/>
    <circle cx="743.3" cy="110.1" r="5"/>
    <circle cx="758.0" cy="135.4" r="5"/>
    <circle cx="786.2" cy="69.4" r="5"/>
    <circle cx="808.8" cy="157.4" r="5"/>
    <circle cx="850.0" cy="274.9" r="5"/>
  </g>

  <g font-family="Arial, Helvetica, sans-serif" font-size="11" fill="#1f2933">
    <text x="72" y="276">+0.008</text>
    <text x="156" y="177">+0.446</text>
    <text x="212" y="163" font-weight="700">+0.507</text>
    <text x="323" y="174">+0.458</text>
    <text x="474" y="178">+0.442</text>
    <text x="566" y="260">+0.065</text>
    <text x="675" y="210">+0.295</text>
    <text x="713" y="101">+0.795</text>
    <text x="728" y="153">+0.680</text>
    <text x="750" y="59" font-weight="700">+0.980</text>
    <text x="776" y="176">+0.580</text>
    <text x="812" y="264">+0.046</text>
  </g>

  <g font-family="Arial, Helvetica, sans-serif" font-size="11" fill="#52606d">
    <text x="58" y="322">2026-05-19</text>
    <text x="72" y="305">03:13</text>
    <text x="178" y="305">04:51</text>
    <text x="256" y="305">05:52</text>
    <text x="400" y="305">07:56</text>
    <text x="580" y="305">10:31</text>
    <text x="695" y="305">12:09</text>
    <text x="760" y="305">14:05</text>
    <text x="832" y="305">16:41</text>
  </g>

  <g font-family="Arial, Helvetica, sans-serif" font-size="12" fill="#1f2933">
    <rect x="621" y="22" width="14" height="4" fill="#f59f00" rx="2"/>
    <text x="642" y="29">exact-gate chips/hand</text>
    <text x="610" y="337" fill="#9c6500">table notes range and safe-rollout failures</text>
  </g>
</svg>
