<svg xmlns="http://www.w3.org/2000/svg" width="900" height="360" viewBox="0 0 900 360" role="img" aria-labelledby="title desc">
  <title id="title">Hold'em capability over time</title>
  <desc id="desc">Best-so-far avg_utility_model in fixed-limit chips per hand against the tight-turn-river-exact-pot-odds e8 gate, using real git commit timestamps. Data: 2026-05-18T08:14:14-07:00 83a65be 0.0000 pre-Hold'em gate, 2026-05-18T09:30:45-07:00 7211b2b 0.0000 first Hold'em policy baseline, 2026-05-19T03:13:49-07:00 e228875 +0.0077 tuned exact policy, 2026-05-19T04:51:12-07:00 c760f0a +0.4455 range-aware rule policy, 2026-05-19T05:52:39-07:00 3344aef +0.5073 current-best neural policy, 2026-05-20T15:34:22-07:00 7822c7a +0.5073 current best unchanged after gated calibration probe, 2026-05-20T15:49:41-07:00 b578227 +0.5073 current best unchanged after MCCFR averaging fix, 2026-05-20T15:59:09-07:00 7dc75b6 +0.5073 current best unchanged after 20k MCCFR probe, 2026-05-20T16:06:39-07:00 dad765f +0.5073 current best unchanged after reach-support MCCFR probe, 2026-05-20T16:15:30-07:00 2cbb728 +0.5073 current best unchanged after cap-2 MCCFR range-gate failure, 2026-05-20T16:45:30-07:00 83a6961 +0.5073 current best unchanged after cap-2 fallback sweep rejection, 2026-05-20T17:01:11-07:00 95a7258 +0.5073 current best unchanged after MCCFR response-distill probe, 2026-05-20T17:06:49-07:00 81c5eb5 +0.5073 current best unchanged after call-weighted MCCFR response-distill probe, 2026-05-20T17:17:29-07:00 e82d291 +0.5073 current best unchanged after p1 MCCFR response-composite probes, 2026-05-20T17:26:42-07:00 cc3a84e +0.5073 current best unchanged after p1 facing-response blend probe, 2026-05-20T17:42:48-07:00 8ce9081 +0.5073 current best unchanged after partial p1 facing-response blend sweep, 2026-05-20T17:48:00-07:00 c10b2c9 +0.5073 current best unchanged after same-seed safe control, 2026-05-20T18:00:15-07:00 0d95d5a +0.5073 current best unchanged after biased p1 facing-response blend probes, 2026-05-20T18:06:01-07:00 e3dbd19 +0.5073 current best unchanged after gated p1 response-bias probe, 2026-05-20T18:11:01-07:00 c4fae8c +0.5073 current best unchanged after inactive blend skipping support, 2026-05-20T18:17:54-07:00 a0d6542 +0.5073 current best unchanged after value400 p0 plus p1 response-composite probes, 2026-05-20T18:22:49-07:00 4c94cc3 +0.5073 current best unchanged after mild value400 p0 plus p1 response-composite probe, 2026-05-20T18:28:12-07:00 60a4214 +0.5073 current best unchanged after value400 p0 plus after-two calibration probe, 2026-05-20T18:33:47-07:00 880c8b2 +0.5073 current best unchanged after value400 p0 plus ungated runtime calibration probe, 2026-05-20T18:42:18-07:00 1d1b6ff +0.5073 current best unchanged after value400 p0 plus p1-only runtime calibration probes, 2026-05-20T18:51:24-07:00 8a89146 +0.5073 current best unchanged after partial value400 p0 plus p1 response-blend probes, 2026-05-20T18:58:18-07:00 030fb58 +0.5073 current best unchanged after partial response-blend exact confirmation, 2026-05-20T19:05:45-07:00 73c600a +0.5073 current best unchanged after after-one response-blend composite probe, 2026-05-20T19:17:06-07:00 f0d7cd8 +0.5073 current best unchanged after KL8 value400 response-composite probe, 2026-05-20T19:32:00-07:00 8ef1d07 +0.5073 current best unchanged after per-seat blend checkpoint support, 2026-05-20T19:39:02-07:00 56d2e95 +0.5073 current best unchanged after per-seat response-composite probes, 2026-05-20T19:46:53-07:00 d74d136 +0.5073 current best unchanged after per-seat blend state restrictions, 2026-05-20T19:49:57-07:00 4fae5c5 +0.5073 current best unchanged after asymmetric value400 response probes, 2026-05-20T19:56:04-07:00 1ce84d6 +0.5073 current best unchanged after full aggression-bucket diagnostics, 2026-05-20T20:16:00-07:00 1c57c5a +0.5073 current best unchanged after value400 decision diagnostics, 2026-05-20T20:30:20-07:00 505af44 +0.5073 current best unchanged after p0 protective replay probe.</desc>
  <rect width="900" height="360" fill="#ffffff"/>
  <rect x="501" y="68" width="349" height="216" fill="#f8fafc"/>

  <text x="96" y="30" font-family="Arial, Helvetica, sans-serif" font-size="20" font-weight="700" fill="#1f2933">Hold'em Capability Over Time</text>
  <text x="96" y="50" font-family="Arial, Helvetica, sans-serif" font-size="12" fill="#52606d">Best-so-far fixed-limit chip EV vs tight-turn-river-exact-pot-odds e8; x-axis uses real git commit times</text>

  <g stroke="#d9e2ec" stroke-width="1">
    <line x1="96" y1="284" x2="850" y2="284"/>
    <line x1="96" y1="68" x2="96" y2="284"/>
  </g>

  <g font-family="Arial, Helvetica, sans-serif" font-size="11" fill="#52606d">
    <line x1="96" y1="284.0" x2="850" y2="284.0" stroke="#eef2f6" stroke-width="1"/>
    <text x="57" y="288">0.00</text>
    <line x1="96" y1="185.8" x2="850" y2="185.8" stroke="#eef2f6" stroke-width="1"/>
    <text x="57" y="190">0.25</text>
    <line x1="96" y1="87.6" x2="850" y2="87.6" stroke="#eef2f6" stroke-width="1"/>
    <text x="57" y="92">0.50</text>
    <text x="32" y="176" transform="rotate(-90 32 176)">chips/hand</text>
  </g>

  <g stroke="#eef2f6" stroke-width="1">
    <line x1="96.0" y1="68" x2="96.0" y2="292"/>
    <line x1="333.6" y1="68" x2="333.6" y2="292"/>
    <line x1="366.7" y1="68" x2="366.7" y2="292"/>
    <line x1="850.0" y1="68" x2="850.0" y2="292"/>
  </g>

  <path d="M 96.0 284.0 L 112.0 284.0 L 112.0 284.0 L 333.6 284.0 L 333.6 281.0 L 353.9 281.0 L 353.9 109.0 L 366.7 109.0 L 366.7 84.7 L 788.3 84.7 L 788.3 84.7 L 791.5 84.7 L 791.5 84.7 L 793.5 84.7 L 793.5 84.7 L 795.0 84.7 L 795.0 84.7 L 796.9 84.7 L 796.9 84.7 L 803.1 84.7 L 803.1 84.7 L 806.4 84.7 L 806.4 84.7 L 807.6 84.7 L 807.6 84.7 L 809.8 84.7 L 809.8 84.7 L 811.7 84.7 L 811.7 84.7 L 815.1 84.7 L 815.1 84.7 L 816.2 84.7 L 816.2 84.7 L 818.7 84.7 L 818.7 84.7 L 819.9 84.7 L 819.9 84.7 L 821.0 84.7 L 821.0 84.7 L 822.4 84.7 L 822.4 84.7 L 823.4 84.7 L 823.4 84.7 L 824.5 84.7 L 824.5 84.7 L 825.7 84.7 L 825.7 84.7 L 827.5 84.7 L 827.5 84.7 L 829.4 84.7 L 829.4 84.7 L 830.8 84.7 L 830.8 84.7 L 832.4 84.7 L 832.4 84.7 L 834.7 84.7 L 834.7 84.7 L 837.8 84.7 L 837.8 84.7 L 839.3 84.7 L 839.3 84.7 L 840.9 84.7 L 840.9 84.7 L 841.6 84.7 L 841.6 84.7 L 842.9 84.7 L 842.9 84.7 L 847.0 84.7 L 847.0 84.7 L 850.0 84.7 L 850.0 84.7" fill="none" stroke="#1f2933" stroke-opacity="0.14" stroke-width="8" stroke-linecap="round" stroke-linejoin="round"/>
  <path d="M 96.0 284.0 L 112.0 284.0 L 112.0 284.0 L 333.6 284.0 L 333.6 281.0 L 353.9 281.0 L 353.9 109.0 L 366.7 109.0 L 366.7 84.7 L 788.3 84.7 L 788.3 84.7 L 791.5 84.7 L 791.5 84.7 L 793.5 84.7 L 793.5 84.7 L 795.0 84.7 L 795.0 84.7 L 796.9 84.7 L 796.9 84.7 L 803.1 84.7 L 803.1 84.7 L 806.4 84.7 L 806.4 84.7 L 807.6 84.7 L 807.6 84.7 L 809.8 84.7 L 809.8 84.7 L 811.7 84.7 L 811.7 84.7 L 815.1 84.7 L 815.1 84.7 L 816.2 84.7 L 816.2 84.7 L 818.7 84.7 L 818.7 84.7 L 819.9 84.7 L 819.9 84.7 L 821.0 84.7 L 821.0 84.7 L 822.4 84.7 L 822.4 84.7 L 823.4 84.7 L 823.4 84.7 L 824.5 84.7 L 824.5 84.7 L 825.7 84.7 L 825.7 84.7 L 827.5 84.7 L 827.5 84.7 L 829.4 84.7 L 829.4 84.7 L 830.8 84.7 L 830.8 84.7 L 832.4 84.7 L 832.4 84.7 L 834.7 84.7 L 834.7 84.7 L 837.8 84.7 L 837.8 84.7 L 839.3 84.7 L 839.3 84.7 L 840.9 84.7 L 840.9 84.7 L 841.6 84.7 L 841.6 84.7 L 842.9 84.7 L 842.9 84.7 L 847.0 84.7 L 847.0 84.7 L 850.0 84.7 L 850.0 84.7" fill="none" stroke="#2563eb" stroke-width="4" stroke-linecap="round" stroke-linejoin="round"/>

  <g fill="#ffffff" stroke="#2563eb" stroke-width="3">
    <circle cx="96.0" cy="284.0" r="5"/>
    <circle cx="112.0" cy="284.0" r="5"/>
    <circle cx="333.6" cy="281.0" r="5"/>
    <circle cx="353.9" cy="109.0" r="5"/>
    <circle cx="366.7" cy="84.7" r="5"/>
  </g>
  <circle cx="850.0" cy="84.7" r="6" fill="#0f766e" stroke="#ffffff" stroke-width="3"/>

  <g font-family="Arial, Helvetica, sans-serif" font-size="11" fill="#1f2933">
    <text x="106" y="270">Hold'em gate not yet fixed</text>
    <text x="361" y="268">+0.008 exact</text>
    <line x1="353.9" y1="109.0" x2="519" y2="122" stroke="#52606d" stroke-width="1"/>
    <text x="524" y="126">+0.446 range-aware rule</text>
    <line x1="366.7" y1="84.7" x2="534" y2="75" stroke="#52606d" stroke-width="1"/>
    <text x="540" y="79" font-weight="700">+0.507 current-best model</text>
    <text x="575" y="103" fill="#0f766e">unchanged after p0 protective replay</text>
  </g>

  <g font-family="Arial, Helvetica, sans-serif" font-size="11" fill="#52606d">
    <text x="61" y="318">2026-05-18</text>
    <text x="79" y="303">08:14</text>
    <text x="385" y="303">2026-05-19</text>
    <text x="409" y="318">03:13</text>
    <text x="439" y="303">05:52</text>
    <text x="786" y="303">2026-05-20</text>
    <text x="830" y="318">20:30</text>
  </g>

  <g font-family="Arial, Helvetica, sans-serif" font-size="12" fill="#1f2933">
    <rect x="620" y="24" width="18" height="4" fill="#2563eb" rx="2"/>
    <text x="646" y="30">best-so-far exact-gate EV</text>
    <circle cx="632" cy="47" r="5" fill="#0f766e"/>
    <text x="646" y="51">current documented capability</text>
    <text x="606" y="337" fill="#52606d">failed robustness probes stay in the table, not the capability line</text>
  </g>
</svg>
