<svg xmlns="http://www.w3.org/2000/svg" width="900" height="360" viewBox="0 0 900 360" role="img" aria-labelledby="title desc">
  <title id="title">Hold'em exact-gate EV over time</title>
  <desc id="desc">Line graph of avg_utility_model in chips per hand against the tight-turn-river-exact-pot-odds e8 gate, using real commit timestamps. Data: 2026-05-19T03:13:49-07:00 e228875 +0.0077, 2026-05-19T04:51:12-07:00 c760f0a +0.4455, 2026-05-19T05:02:45-07:00 806fda7 +0.3545, 2026-05-19T05:52:39-07:00 3344aef +0.5073, 2026-05-19T07:56:19-07:00 fe97bbc +0.4578, 2026-05-19T10:31:16-07:00 2861fdb +0.4415, 2026-05-19T12:09:32-07:00 2d027bd +0.0650, 2026-05-19T14:05:21-07:00 bdec05e +0.2950.</desc>
  <rect width="900" height="360" fill="#ffffff"/>
  <text x="92" y="28" font-family="Arial, Helvetica, sans-serif" font-size="20" font-weight="700" fill="#1f2933">Hold'em Exact-Gate EV Over Time</text>
  <text x="92" y="48" font-family="Arial, Helvetica, sans-serif" font-size="12" fill="#52606d">avg_utility_model, chips/hand vs tight-turn-river-exact-pot-odds e8; timestamps are commit times</text>

  <line x1="92" y1="285" x2="850" y2="285" stroke="#9aa5b1" stroke-width="1"/>
  <line x1="92" y1="50" x2="92" y2="285" stroke="#9aa5b1" stroke-width="1"/>

  <g font-family="Arial, Helvetica, sans-serif" font-size="11" fill="#52606d">
    <line x1="92" y1="265.4" x2="850" y2="265.4" stroke="#e4e7eb" stroke-width="1"/>
    <text x="58" y="269">0.00</text>
    <line x1="92" y1="187.1" x2="850" y2="187.1" stroke="#e4e7eb" stroke-width="1"/>
    <text x="58" y="191">0.20</text>
    <line x1="92" y1="108.7" x2="850" y2="108.7" stroke="#e4e7eb" stroke-width="1"/>
    <text x="58" y="113">0.40</text>
    <line x1="92" y1="69.6" x2="850" y2="69.6" stroke="#f3d19c" stroke-width="1" stroke-dasharray="4 4"/>
    <text x="58" y="73">0.50</text>
  </g>

  <polyline points="92.0,262.4 205.3,90.9 218.7,126.6 276.8,66.7 420.7,86.1 600.9,92.5 715.3,240.0 850.0,149.9" fill="none" stroke="#1f2933" stroke-opacity="0.13" stroke-width="8" stroke-linecap="round" stroke-linejoin="round"/>
  <polyline points="92.0,262.4 205.3,90.9 218.7,126.6 276.8,66.7 420.7,86.1 600.9,92.5 715.3,240.0 850.0,149.9" fill="none" stroke="#f59f00" stroke-width="4" stroke-linecap="round" stroke-linejoin="round"/>

  <g fill="#ffffff" stroke="#f59f00" stroke-width="3">
    <circle cx="92.0" cy="262.4" r="5"/>
    <circle cx="205.3" cy="90.9" r="5"/>
    <circle cx="218.7" cy="126.6" r="5"/>
    <circle cx="276.8" cy="66.7" r="5"/>
    <circle cx="420.7" cy="86.1" r="5"/>
    <circle cx="600.9" cy="92.5" r="5"/>
    <circle cx="715.3" cy="240.0" r="5"/>
    <circle cx="850.0" cy="149.9" r="5"/>
  </g>

  <g font-family="Arial, Helvetica, sans-serif" font-size="11" fill="#1f2933">
    <text x="72" y="250">+0.008</text>
    <text x="180" y="78">+0.446</text>
    <text x="252" y="58" font-weight="700">+0.507</text>
    <text x="385" y="78">+0.458</text>
    <text x="574" y="82">+0.442</text>
    <text x="686" y="229">+0.065</text>
    <text x="816" y="138">+0.295</text>
  </g>

  <g font-family="Arial, Helvetica, sans-serif" font-size="11" fill="#52606d">
    <text x="58" y="322">2026-05-19</text>
    <text x="72" y="305">03:13</text>
    <text x="178" y="305">04:51</text>
    <text x="256" y="305">05:52</text>
    <text x="400" y="305">07:56</text>
    <text x="580" y="305">10:31</text>
    <text x="695" y="305">12:09</text>
    <text x="822" y="305">14:05</text>
  </g>

  <g font-family="Arial, Helvetica, sans-serif" font-size="12" fill="#1f2933">
    <rect x="621" y="22" width="14" height="4" fill="#f59f00" rx="2"/>
    <text x="642" y="29">exact-gate chips/hand</text>
    <text x="252" y="84" fill="#9c6500">current best recorded exact probe</text>
  </g>
</svg>
