<svg xmlns="http://www.w3.org/2000/svg" width="900" height="360" viewBox="0 0 900 360" role="img" aria-labelledby="title desc">
  <title id="title">Hold'em exact-gate EV over time</title>
  <desc id="desc">Line graph of avg_utility_model in chips per hand against the tight-turn-river-exact-pot-odds e8 gate, using real commit timestamps. Data: 2026-05-19T03:13:49-07:00 e228875 +0.0077, 2026-05-19T04:51:12-07:00 c760f0a +0.4455, 2026-05-19T05:02:45-07:00 806fda7 +0.3545, 2026-05-19T05:52:39-07:00 3344aef +0.5073, 2026-05-19T07:56:19-07:00 fe97bbc +0.4578, 2026-05-19T10:31:16-07:00 2861fdb +0.4415, 2026-05-19T12:09:32-07:00 2d027bd +0.0650, 2026-05-19T14:05:21-07:00 bdec05e +0.2950, 2026-05-19T14:47:54-07:00 26e80b3 +0.7950.</desc>
  <rect width="900" height="360" fill="#ffffff"/>
  <text x="92" y="28" font-family="Arial, Helvetica, sans-serif" font-size="20" font-weight="700" fill="#1f2933">Hold'em Exact-Gate EV Over Time</text>
  <text x="92" y="48" font-family="Arial, Helvetica, sans-serif" font-size="12" fill="#52606d">avg_utility_model, chips/hand vs tight-turn-river-exact-pot-odds e8; timestamps are commit times</text>

  <line x1="92" y1="285" x2="850" y2="285" stroke="#9aa5b1" stroke-width="1"/>
  <line x1="92" y1="50" x2="92" y2="285" stroke="#9aa5b1" stroke-width="1"/>

  <g font-family="Arial, Helvetica, sans-serif" font-size="11" fill="#52606d">
    <line x1="92" y1="271.9" x2="850" y2="271.9" stroke="#e4e7eb" stroke-width="1"/>
    <text x="58" y="276">0.00</text>
    <line x1="92" y1="219.7" x2="850" y2="219.7" stroke="#e4e7eb" stroke-width="1"/>
    <text x="58" y="224">0.20</text>
    <line x1="92" y1="167.5" x2="850" y2="167.5" stroke="#e4e7eb" stroke-width="1"/>
    <text x="58" y="171">0.40</text>
    <line x1="92" y1="115.3" x2="850" y2="115.3" stroke="#e4e7eb" stroke-width="1"/>
    <text x="58" y="119">0.60</text>
    <line x1="92" y1="63.1" x2="850" y2="63.1" stroke="#f3d19c" stroke-width="1" stroke-dasharray="4 4"/>
    <text x="58" y="67">0.80</text>
  </g>

  <polyline points="92.0,269.9 198.4,155.6 211.0,179.4 265.5,139.5 400.5,152.4 569.7,156.7 677.0,255.0 803.5,194.9 850.0,64.4" fill="none" stroke="#1f2933" stroke-opacity="0.13" stroke-width="8" stroke-linecap="round" stroke-linejoin="round"/>
  <polyline points="92.0,269.9 198.4,155.6 211.0,179.4 265.5,139.5 400.5,152.4 569.7,156.7 677.0,255.0 803.5,194.9 850.0,64.4" fill="none" stroke="#f59f00" stroke-width="4" stroke-linecap="round" stroke-linejoin="round"/>

  <g fill="#ffffff" stroke="#f59f00" stroke-width="3">
    <circle cx="92.0" cy="269.9" r="5"/>
    <circle cx="198.4" cy="155.6" r="5"/>
    <circle cx="211.0" cy="179.4" r="5"/>
    <circle cx="265.5" cy="139.5" r="5"/>
    <circle cx="400.5" cy="152.4" r="5"/>
    <circle cx="569.7" cy="156.7" r="5"/>
    <circle cx="677.0" cy="255.0" r="5"/>
    <circle cx="803.5" cy="194.9" r="5"/>
    <circle cx="850.0" cy="64.4" r="5"/>
  </g>

  <g font-family="Arial, Helvetica, sans-serif" font-size="11" fill="#1f2933">
    <text x="72" y="258">+0.008</text>
    <text x="170" y="145">+0.446</text>
    <text x="241" y="129" font-weight="700">+0.507</text>
    <text x="365" y="142">+0.458</text>
    <text x="543" y="146">+0.442</text>
    <text x="649" y="244">+0.065</text>
    <text x="770" y="184">+0.295</text>
    <text x="813" y="55">+0.795</text>
  </g>

  <g font-family="Arial, Helvetica, sans-serif" font-size="11" fill="#52606d">
    <text x="58" y="322">2026-05-19</text>
    <text x="72" y="305">03:13</text>
    <text x="178" y="305">04:51</text>
    <text x="256" y="305">05:52</text>
    <text x="400" y="305">07:56</text>
    <text x="580" y="305">10:31</text>
    <text x="695" y="305">12:09</text>
    <text x="774" y="305">14:05</text>
    <text x="824" y="305">14:47</text>
  </g>

  <g font-family="Arial, Helvetica, sans-serif" font-size="12" fill="#1f2933">
    <rect x="621" y="22" width="14" height="4" fill="#f59f00" rx="2"/>
    <text x="642" y="29">exact-gate chips/hand</text>
    <text x="670" y="70" fill="#9c6500">exact-only spike; table notes safe failure</text>
  </g>
</svg>
