<svg xmlns="http://www.w3.org/2000/svg" width="900" height="360" viewBox="0 0 900 360" role="img" aria-labelledby="title desc">
  <title id="title">Hold'em capability over time</title>
  <desc id="desc">Best-so-far avg_utility_model in fixed-limit chips per hand against the tight-turn-river-exact-pot-odds e8 gate, using real git commit timestamps. Data: 2026-05-18T08:14:14-07:00 83a65be 0.0000 pre-Hold'em gate, 2026-05-18T09:30:45-07:00 7211b2b 0.0000 first Hold'em policy baseline, 2026-05-19T03:13:49-07:00 e228875 +0.0077 tuned exact policy, 2026-05-19T04:51:12-07:00 c760f0a +0.4455 range-aware rule policy, 2026-05-19T05:52:39-07:00 3344aef +0.5073 current-best neural policy, 2026-05-20T10:18:59-07:00 c1a9806 +0.5073 current best unchanged after fast range-default replay probe.</desc>
  <rect width="900" height="360" fill="#ffffff"/>
  <rect x="501" y="68" width="349" height="216" fill="#f8fafc"/>

  <text x="96" y="30" font-family="Arial, Helvetica, sans-serif" font-size="20" font-weight="700" fill="#1f2933">Hold'em Capability Over Time</text>
  <text x="96" y="50" font-family="Arial, Helvetica, sans-serif" font-size="12" fill="#52606d">Best-so-far fixed-limit chip EV vs tight-turn-river-exact-pot-odds e8; x-axis uses real git commit times</text>

  <g stroke="#d9e2ec" stroke-width="1">
    <line x1="96" y1="284" x2="850" y2="284"/>
    <line x1="96" y1="68" x2="96" y2="284"/>
  </g>

  <g font-family="Arial, Helvetica, sans-serif" font-size="11" fill="#52606d">
    <line x1="96" y1="284.0" x2="850" y2="284.0" stroke="#eef2f6" stroke-width="1"/>
    <text x="57" y="288">0.00</text>
    <line x1="96" y1="185.8" x2="850" y2="185.8" stroke="#eef2f6" stroke-width="1"/>
    <text x="57" y="190">0.25</text>
    <line x1="96" y1="87.6" x2="850" y2="87.6" stroke="#eef2f6" stroke-width="1"/>
    <text x="57" y="92">0.50</text>
    <text x="32" y="176" transform="rotate(-90 32 176)">chips/hand</text>
  </g>

  <g stroke="#eef2f6" stroke-width="1">
    <line x1="96.0" y1="68" x2="96.0" y2="292"/>
    <line x1="382.0" y1="68" x2="382.0" y2="292"/>
    <line x1="421.8" y1="68" x2="421.8" y2="292"/>
    <line x1="850.0" y1="68" x2="850.0" y2="292"/>
  </g>

  <path d="M 96.0 284.0 L 115.2 284.0 L 115.2 284.0 L 382.0 284.0 L 382.0 281.0 L 406.4 281.0 L 406.4 109.0 L 421.8 109.0 L 421.8 84.8 L 850.0 84.8 L 850.0 84.8" fill="none" stroke="#1f2933" stroke-opacity="0.14" stroke-width="8" stroke-linecap="round" stroke-linejoin="round"/>
  <path d="M 96.0 284.0 L 115.2 284.0 L 115.2 284.0 L 382.0 284.0 L 382.0 281.0 L 406.4 281.0 L 406.4 109.0 L 421.8 109.0 L 421.8 84.8 L 850.0 84.8 L 850.0 84.8" fill="none" stroke="#2563eb" stroke-width="4" stroke-linecap="round" stroke-linejoin="round"/>

  <g fill="#ffffff" stroke="#2563eb" stroke-width="3">
    <circle cx="96.0" cy="284.0" r="5"/>
    <circle cx="115.2" cy="284.0" r="5"/>
    <circle cx="382.0" cy="281.0" r="5"/>
    <circle cx="406.4" cy="109.0" r="5"/>
    <circle cx="421.8" cy="84.8" r="5"/>
  </g>
  <circle cx="850.0" cy="84.8" r="6" fill="#0f766e" stroke="#ffffff" stroke-width="3"/>

  <g font-family="Arial, Helvetica, sans-serif" font-size="11" fill="#1f2933">
    <text x="106" y="270">Hold'em gate not yet fixed</text>
    <text x="378" y="268">+0.008 exact</text>
    <line x1="406.4" y1="109.0" x2="519" y2="122" stroke="#52606d" stroke-width="1"/>
    <text x="524" y="126">+0.446 range-aware rule</text>
    <line x1="421.8" y1="84.8" x2="534" y2="75" stroke="#52606d" stroke-width="1"/>
    <text x="540" y="79" font-weight="700">+0.507 current-best model</text>
    <text x="592" y="103" fill="#0f766e">unchanged after fast range-default replay</text>
  </g>

  <g font-family="Arial, Helvetica, sans-serif" font-size="11" fill="#52606d">
    <text x="61" y="318">2026-05-18</text>
    <text x="79" y="303">08:14</text>
    <text x="397" y="303">2026-05-19</text>
    <text x="421" y="318">03:13</text>
    <text x="453" y="303">05:52</text>
    <text x="786" y="303">2026-05-20</text>
    <text x="830" y="318">10:18</text>
  </g>

  <g font-family="Arial, Helvetica, sans-serif" font-size="12" fill="#1f2933">
    <rect x="620" y="24" width="18" height="4" fill="#2563eb" rx="2"/>
    <text x="646" y="30">best-so-far exact-gate EV</text>
    <circle cx="632" cy="47" r="5" fill="#0f766e"/>
    <text x="646" y="51">current documented capability</text>
    <text x="606" y="337" fill="#52606d">failed robustness probes stay in the table, not the capability line</text>
  </g>
</svg>
